:FULLY-SPECIFIED
:FORCE-ALL-JOINTS-BE-3DOF
:DEGREES
713
root 5.4826 21.132 6.95558 10.4355 -81.8781 15.9651
lfemur -39.0468 -6.86016 14.0488
ltibia 90.9954 0 0
lfoot 3.90956 -5.86678 0
ltoes 32.6695 0 0
rfemur -24.3401 -0.639665 3.24864
rtibia 53.0601 0 0
rfoot 16.0816 -16.8033 0
rtoes 26.8478 0 0
lowerback 5.90411 -1.06034 -1.64642
upperback -1.25435 -1.6499 -1.79045
thorax -4.60073 -0.796259 -0.744456
lowerneck -6.71209 -5.28981 -1.44509
upperneck 0.233878 -7.08163 4.60283
head 1.4571 -3.47651 1.45886
lclavicle -1.39608e-14 -1.58568e-15 0
lhumerus 8.69614 -19.7499 13.3222
lradius 53.0927 0 0
lwrist 27.5419 0 0
lhand -20.4497 -2.57113 0
lfingers 7.12502 0 0
lthumb 5.90664 27.3377 0
rclavicle -1.39608e-14 -1.58568e-15 0
rhumerus -17.7878 -6.57082 -22.9553
rradius 98.1676 0 0
rwrist -7.54198 0 0
rhand -32.6334 -39.9947 0
rfingers 7.12502 0 0
rthumb -5.86023 -789.878 0
714
root 5.45694 21.1215 7.08885 10.4477 -81.84 18.2869
lfemur -39.1602 -6.93892 14.0589
ltibia 90.8159 0 0
lfoot 3.94491 -5.94211 0
ltoes 32.6339 0 0
rfemur -24.0965 -0.553605 3.27982
rtibia 52.8813 0 0
rfoot 15.8422 -16.9363 0
rtoes 26.6554 0 0
lowerback 5.88769 -1.01094 -1.58447
upperback -1.25275 -1.58183 -1.79455
thorax -4.58708 -0.762436 -0.785255
lowerneck -6.7041 -5.24777 -1.41931
upperneck 0.163209 -7.02271 4.57613
head 1.4311 -3.44953 1.45103
lclavicle -1.43107e-14 -1.60173e-15 0
lhumerus 8.40905 -19.583 13.5238
lradius 53.1138 0 0
lwrist 27.5293 0 0
lhand -20.4573 -2.54772 0
lfingers 7.12502 0 0
lthumb 5.89977 27.3659 0
rclavicle -1.43107e-14 -1.60173e-15 0
rhumerus -18.0394 -6.26953 -23.3578
rradius 97.8516 0 0
rwrist -7.2814 0 0
rhand -32.5506 -39.993 0
rfingers 7.12502 0 0
rthumb -5.78028 -789.876 0
715
root 5.43017 21.1091 7.22346 10.4565 -81.7535 20.696
lfemur -39.2727 -7.01141 14.058
ltibia 90.6118 0 0
lfoot 3.96994 -6.0101 0
ltoes 32.5905 0 0
rfemur -23.8509 -0.468797 3.3222
rtibia 52.6945 0 0
rfoot 15.5882 -17.0586 0
rtoes 26.441 0 0
lowerback 5.86985 -0.959771 -1.52079
upperback -1.25048 -1.5113 -1.7977
thorax -4.57163 -0.727395 -0.826132
lowerneck -6.69604 -5.20538 -1.39215
upperneck 0.0939988 -6.9635 4.54851
head 1.40545 -3.42234 1.44259
lclavicle -1.4693e-14 -1.62312e-15 0
lhumerus 8.09959 -19.4139 13.7586
lradius 53.1364 0 0
lwrist 27.515 0 0
lhand -20.4651 -2.52308 0
lfingers 7.12502 0 0
lthumb 5.89281 27.3959 0
rclavicle -1.4693e-14 -1.62312e-15 0
rhumerus -18.2866 -5.95053 -23.794
rradius 97.528 0 0
rwrist -7.02624 0 0
rhand -32.4632 -39.9863 0
rfingers 7.12502 0 0
rthumb -5.69586 -789.868 0
716
root 5.40233 21.0948 7.35938 10.4619 -81.6195 23.1904
lfemur -39.3843 -7.0777 14.0461
ltibia 90.3838 0 0
lfoot 3.98487 -6.0709 0
ltoes 32.5394 0 0
rfemur -23.6034 -0.385241 3.37554
rtibia 52.4998 0 0
rfoot 15.3199 -17.1705 0
rtoes 26.2049 0 0
lowerback 5.85064 -0.906891 -1.45545
upperback -1.24755 -1.43837 -1.79993
thorax -4.55442 -0.691167 -0.867078
lowerneck -6.68792 -5.16266 -1.36366
upperneck 0.0262348 -6.90404 4.51997
head 1.38016 -3.39496 1.43354
lclavicle -1.51068e-14 -1.64971e-15 0
lhumerus 7.76824 -19.2427 14.026
lradius 53.1604 0 0
lwrist 27.499 0 0
lhand -20.4729 -2.49722 0
lfingers 7.12502 0 0
lthumb 5.8858 27.4279 0
rclavicle -1.51068e-14 -1.64971e-15 0
rhumerus -18.5295 -5.61423 -24.2632
rradius 97.1971 0 0
rwrist -6.77642 0 0
rhand -32.3712 -39.9747 0
rfingers 7.12502 0 0
rthumb -5.60705 -789.855 0
717
root 5.37343 21.0787 7.49659 10.464 -81.4389 25.7682
lfemur -39.4948 -7.1379 14.0236
ltibia 90.1323 0 0
lfoot 3.98988 -6.12466 0
ltoes 32.4808 0 0
rfemur -23.3541 -0.302939 3.43957
rtibia 52.2976 0 0
rfoot 15.0377 -17.2722 0
rtoes 25.9477 0 0
lowerback 5.83007 -0.852345 -1.38849
upperback -1.24397 -1.36311 -1.80125
thorax -4.53548 -0.653786 -0.908082
lowerneck -6.67976 -5.11963 -1.33386
upperneck -0.0400938 -6.84433 4.49056
head 1.35521 -3.3674 1.42391
lclavicle -1.55513e-14 -1.68137e-15 0
lhumerus 7.41545 -19.0695 14.3252
lradius 53.1859 0 0
lwrist 27.4814 0 0
lhand -20.4808 -2.47014 0
lfingers 7.12502 0 0
lthumb 5.87881 27.4618 0
rclavicle -1.55513e-14 -1.68137e-15 0
rhumerus -18.7681 -5.26103 -24.7647
rradius 96.8591 0 0
rwrist -6.53189 0 0
rhand -32.2748 -39.9583 0
rfingers 7.12502 0 0
rthumb -5.51393 -789.838 0
718
root 5.34352 21.0608 7.63506 10.4629 -81.2126 28.4273
lfemur -39.6043 -7.19209 13.9905
ltibia 89.8578 0 0
lfoot 3.98516 -6.17154 0
ltoes 32.4149 0 0
rfemur -23.1031 -0.221892 3.51404
rtibia 52.088 0 0
rfoot 14.742 -17.3639 0
rtoes 25.6699 0 0
lowerback 5.80818 -0.796179 -1.31996
upperback -1.23976 -1.28558 -1.80168
thorax -4.51486 -0.615283 -0.949137
lowerneck -6.67154 -5.0763 -1.3028
upperneck -0.104998 -6.7844 4.46029
head 1.33061 -3.33967 1.41371
lclavicle -1.60258e-14 -1.71795e-15 0
lhumerus 7.04171 -18.8944 14.6557
lradius 53.2127 0 0
lwrist 27.4621 0 0
lhand -20.4888 -2.44186 0
lfingers 7.12502 0 0
lthumb 5.87189 27.4974 0
rclavicle -1.60258e-14 -1.71795e-15 0
rhumerus -19.0025 -4.89133 -25.2977
rradius 96.5143 0 0
rwrist -6.2926 0 0
rhand -32.174 -39.9371 0
rfingers 7.12502 0 0
rthumb -5.41658 -789.816 0
719
root 5.3126 21.0411 7.77475 10.4585 -80.9416 31.1658
lfemur -39.7128 -7.24037 13.9473
ltibia 89.5608 0 0
lfoot 3.97092 -6.21168 0
ltoes 32.3417 0 0
rfemur -22.8504 -0.142101 3.5987
rtibia 51.8711 0 0
rfoot 14.4331 -17.4457 0
rtoes 25.3721 0 0
lowerback 5.78501 -0.738441 -1.24991
upperback -1.23493 -1.20585 -1.80126
thorax -4.4926 -0.575691 -0.990232
lowerneck -6.66328 -5.03269 -1.27051
upperneck -0.16849 -6.72427 4.4292
head 1.30636 -3.31179 1.40296
lclavicle -1.65295e-14 -1.75933e-15 0
lhumerus 6.64748 -18.7175 15.0168
lradius 53.241 0 0
lwrist 27.4411 0 0
lhand -20.4966 -2.41239 0
lfingers 7.12502 0 0
lthumb 5.8651 27.5349 0
rclavicle -1.65295e-14 -1.75933e-15 0
rhumerus -19.2328 -4.50553 -25.8617
rradius 96.1628 0 0
rwrist -6.05848 0 0
rhand -32.0689 -39.9114 0
rfingers 7.12502 0 0
rthumb -5.31509 -789.79 0
720
root 5.28072 21.0197 7.91564 10.451 -80.6268 33.9817
lfemur -39.8203 -7.28282 13.8939
ltibia 89.2418 0 0
lfoot 3.94733 -6.24525 0
ltoes 32.2614 0 0
rfemur -22.5962 -0.0635676 3.69329
rtibia 51.6473 0 0
rfoot 14.1114 -17.5179 0
rtoes 25.0547 0 0
lowerback 5.76057 -0.679177 -1.17839
upperback -1.22948 -1.12398 -1.79999
thorax -4.46872 -0.535043 -1.03136
lowerneck -6.65497 -4.98883 -1.23702
upperneck -0.230581 -6.66396 4.39731
head 1.28246 -3.28375 1.39166
lclavicle -1.70617e-14 -1.80536e-15 0
lhumerus 6.23323 -18.5388 15.4079
lradius 53.2705 0 0
lwrist 27.4186 0 0
lhand -20.5043 -2.38174 0
lfingers 7.12502 0 0
lthumb 5.85849 27.5741 0
rclavicle -1.70617e-14 -1.80536e-15 0
rhumerus -19.459 -4.10405 -26.4557
rradius 95.8051 0 0
rwrist -5.82947 0 0
rhand -31.9596 -39.881 0
rfingers 7.12502 0 0
rthumb -5.20954 -789.758 0
721
root 5.24789 20.9965 8.05769 10.4404 -80.2691 36.873
lfemur -39.9266 -7.31955 13.8307
ltibia 88.9014 0 0
lfoot 3.91461 -6.27239 0
ltoes 32.1741 0 0
rfemur -22.3405 0.013708 3.79756
rtibia 51.4167 0 0
rfoot 13.7771 -17.5806 0
rtoes 24.7182 0 0
lowerback 5.73489 -0.618434 -1.10546
upperback -1.22344 -1.04005 -1.7979
thorax -4.44327 -0.493371 -1.07251
lowerneck -6.64662 -4.94472 -1.20237
upperneck -0.291281 -6.6035 4.36464
head 1.25891 -3.25558 1.37984
lclavicle -1.76215e-14 -1.85591e-15 0
lhumerus 5.79944 -18.3586 15.8283
lradius 53.3014 0 0
lwrist 27.3944 0 0
lhand -20.5118 -2.34992 0
lfingers 7.12502 0 0
lthumb 5.85212 27.615 0
rclavicle -1.76215e-14 -1.85591e-15 0
rhumerus -19.6813 -3.68728 -27.0793
rradius 95.4412 0 0
rwrist -5.60552 0 0
rhand -31.8462 -39.8461 0
rfingers 7.12502 0 0
rthumb -5.10001 -789.723 0
722
root 5.21414 20.9718 8.20088 10.4268 -79.8694 39.8379
lfemur -40.0319 -7.35064 13.7578
ltibia 88.54 0 0
lfoot 3.87293 -6.29324 0
ltoes 32.0801 0 0
rfemur -22.0835 0.0897243 3.91124
rtibia 51.1795 0 0
rfoot 13.4307 -17.6342 0
rtoes 24.3632 0 0
lowerback 5.70802 -0.556259 -1.03117
upperback -1.21682 -0.954107 -1.79501
thorax -4.41628 -0.450708 -1.11367
lowerneck -6.63824 -4.9004 -1.1666
upperneck -0.350602 -6.54289 4.33122
head 1.23571 -3.22728 1.36751
lclavicle -1.82083e-14 -1.91084e-15 0
lhumerus 5.34657 -18.1768 16.2774
lradius 53.3336 0 0
lwrist 27.3687 0 0
lhand -20.5191 -2.31695 0
lfingers 7.12502 0 0
lthumb 5.84604 27.6576 0
rclavicle -1.82083e-14 -1.91084e-15 0
rhumerus -19.8998 -3.25564 -27.7315
rradius 95.0715 0 0
rwrist -5.38656 0 0
rhand -31.7288 -39.8068 0
rfingers 7.12502 0 0
rthumb -4.98659 -789.683 0
